<?xml version="1.0" standalone="no"?>
<!DOCTYPE svg PUBLIC "-//W3C//DTD SVG 20010904//EN"
 "http://www.w3.org/TR/2001/REC-SVG-20010904/DTD/svg10.dtd">
<svg version="1.0" xmlns="http://www.w3.org/2000/svg"
 width="512.000000pt" height="512.000000pt" viewBox="0 0 512.000000 512.000000"
 preserveAspectRatio="xMidYMid meet">
<metadata>
Created by potrace 1.14, written by Peter Selinger 2001-2017
</metadata>
<g transform="translate(0.000000,512.000000) scale(0.100000,-0.100000)"
fill="#000000" stroke="none">
<path d="M2430 4874 c-332 -43 -600 -173 -818 -398 -170 -175 -279 -377 -326
-602 -8 -38 -37 -241 -65 -451 -55 -410 -82 -560 -138 -743 -128 -425 -345
-806 -652 -1148 -76 -85 -101 -120 -101 -141 0 -18 18 -49 55 -94 127 -154
318 -274 523 -329 113 -30 346 -35 465 -10 56 12 87 14 87 8 0 -6 -11 -47 -25
-91 -38 -123 -36 -139 33 -203 221 -207 488 -341 803 -403 147 -29 413 -32
556 -5 323 59 614 205 838 419 55 53 56 72 18 199 -14 48 -24 90 -22 92 2 3
29 -3 59 -11 32 -9 116 -17 200 -20 119 -4 162 -1 240 15 228 47 435 169 575
339 77 93 75 100 -33 220 -287 317 -488 648 -620 1024 -89 255 -116 385 -182
873 -54 400 -69 483 -107 591 -68 189 -166 340 -317 490 -250 248 -532 370
-881 380 -71 2 -146 1 -165 -1z m393 -183 c320 -73 595 -284 747 -573 94 -180
110 -245 170 -703 22 -170 50 -362 61 -425 98 -559 346 -1078 719 -1506 l83
-96 -49 -50 c-100 -102 -247 -182 -401 -219 -126 -30 -332 -23 -448 14 -44 15
-88 32 -97 39 -10 8 -76 212 -173 538 -165 556 -171 570 -229 570 -38 0 -76
-37 -76 -72 0 -17 92 -339 205 -715 113 -375 205 -689 205 -697 0 -9 -28 -39
-62 -67 -174 -145 -394 -250 -631 -301 -136 -29 -417 -32 -551 -5 -245 50
-484 163 -663 315 -29 24 -53 50 -53 57 0 6 92 319 205 695 113 376 205 698
205 716 0 37 -38 74 -76 74 -58 0 -64 -14 -229 -570 -86 -289 -162 -530 -168
-536 -15 -15 -125 -51 -197 -64 -91 -18 -261 -13 -356 10 -151 36 -302 119
-403 223 l-43 45 77 89 c318 362 546 795 670 1268 45 172 66 292 120 710 27
209 55 386 70 440 114 410 480 732 922 811 107 18 330 11 446 -15z"/>
<path d="M1910 3845 c-212 -90 -372 -164 -382 -176 -36 -43 -11 -110 47 -125
17 -4 28 -17 36 -42 31 -101 122 -193 226 -232 82 -31 205 -26 285 12 79 37
142 98 181 177 29 60 32 74 32 161 0 82 -4 103 -26 151 l-27 56 34 16 c18 9
40 27 49 41 33 49 -5 116 -65 116 -14 0 -189 -70 -390 -155z"/>
<path d="M2765 3975 c-44 -43 -24 -104 41 -131 l33 -14 -27 -57 c-23 -50 -27
-71 -27 -153 0 -87 3 -101 32 -161 39 -79 102 -140 181 -177 80 -38 203 -43
285 -12 104 39 195 131 226 232 8 25 19 38 36 42 58 15 83 82 48 125 -22 26
-736 330 -776 331 -17 0 -38 -10 -52 -25z"/>
<path d="M2443 3145 c-189 -51 -328 -207 -356 -398 -9 -66 -9 -78 7 -101 30
-47 55 -51 138 -22 211 73 445 73 656 0 83 -29 108 -25 138 22 16 23 16 35 7
101 -40 280 -322 470 -590 398z m227 -164 c64 -24 113 -61 151 -114 45 -61 40
-67 -38 -49 -92 21 -354 21 -445 0 -79 -18 -84 -12 -39 49 84 116 240 164 371
114z"/>
</g>
</svg>
